<svg viewBox="0 0 72 72" xmlns="http://www.w3.org/2000/svg"><g fill="none" stroke="#000" stroke-linecap="round" stroke-linejoin="round"><path d="m36.8723 48.3986a6.8472 6.8472 0 0 1 -1.0665.0811h.125c-3.0736.0063-5.8081-1.4642-9-3.5921-12 0-10 13-10 13" stroke-width="2"/><path d="m35.467 52.133h-8.538l.002-7.245" stroke-width="2"/><path d="m22.2649 45.7569v12.1097" stroke-width="2"/><path d="m35.147 59.772h24.99l6.95-16.349h-24.99z" stroke-width="2"/><path d="m24.1767 59.7725h10.97" stroke-width="2"/><path d="m38.2936 35.589-2.4434-3.0143" stroke-width="1.8"/><path d="m33.4068 35.589 2.4434-3.0143" stroke-width="1.8"/><path d="m33.4068 32.5747h4.8868" stroke-width="1.8"/><path d="m49.7667 23.869.4387 4.1844a13.664 13.664 0 0 1 -1.0171 5.189" stroke-width="2"/><path d="m22.5121 33.2423a13.6635 13.6635 0 0 1 -1.0171-5.1889l2.138-18.99 6.4492 6.2109a14.175 14.175 0 0 1 5.4626-1.0868h.6108a14.1825 14.1825 0 0 1 5.4632 1.0868l6.4485-6.2109.6655 6.399" stroke-width="2"/><path d="m28.1119 39.7219a14.1207 14.1207 0 0 0 7.4329 2.0969h.6108a14.1191 14.1191 0 0 0 7.4329-2.0969" stroke-width="1.8"/></g><ellipse cx="28.5199" cy="27.752" rx="1.2217" ry="1.2057"/><ellipse cx="43.1805" cy="27.752" rx="1.2217" ry="1.2057"/><path d="m47.0723 24.9474s-8.1678 3.4075-7.7837 3.84c7.8154 7.0159 8.4286-2.8627 7.7837-3.84z" fill="none" stroke="#000" stroke-linecap="round" stroke-linejoin="round" stroke-width="1.6"/><path d="m50.9216 37.1947-5.4977-3.0143" fill="none" stroke="#000" stroke-linecap="round" stroke-linejoin="round" stroke-width="1.6"/><path d="m48.6782 39.8089-5.4977-3.0142" fill="none" stroke="#000" stroke-linecap="round" stroke-linejoin="round" stroke-width="1.6"/><path d="m24.6281 24.9474s7.5569 4.01 7.7837 3.84c-7.5445 7.3838-8.5455-2.2369-7.7837-3.84z" fill="none" stroke="#000" stroke-linecap="round" stroke-linejoin="round" stroke-width="1.6"/><path d="m20.7788 37.1947 5.4977-3.0143" fill="none" stroke="#000" stroke-linecap="round" stroke-linejoin="round" stroke-width="1.6"/><path d="m23.0222 39.8089 5.4977-3.0142" fill="none" stroke="#000" stroke-linecap="round" stroke-linejoin="round" stroke-width="1.6"/><path d="m46.998 18.284-24.346-.584-.487 4.728 24.84-1.502" fill="none" stroke="#000" stroke-linecap="round" stroke-linejoin="round" stroke-width="1.6"/><path d="m50.4972 19.6a2 2 0 1 1 -2-2 2.0007 2.0007 0 0 1 2 2" fill="none" stroke="#000" stroke-linecap="round" stroke-linejoin="round" stroke-width="1.6"/></svg>